ffmpeg started on 2026-01-14 at 13:55:26
Report written to "D:\Convert\FFMetrics\reports\psnr_report-6.txt"
Log level: 32
Command line:
ffmpeg -hide_banner -nostdin -r 24000/1001 -i "F:\\Convert\\files\\[DC] Make Heroine ga Oosugiru - 07_Telegram_HEVC(128).mkv" -r 24000/1001 -i "F:\\Convert\\files\\[DC] Make Heroine ga Oosugiru - 07_Telegram.mp4" -lavfi "[0:v]settb=AVTB,setpts=PTS-STARTPTS,format=pix_fmts=yuv420p10le,fps=24000/1001,scale=1920:1080:flags=lanczos:param0=3:out_range=limited:out_color_matrix=bt709:out_chroma_loc=left,setsar=1/1,setdar=(1920/1080)*(1/1),colorspace=format=yuv420p10:range=tv:primaries=bt709:trc=bt709:space=bt709:fast=0[main];[1:v]settb=AVTB,setpts=PTS-STARTPTS,format=pix_fmts=yuv420p,fps=24000/1001,scale=1920:1080:flags=lanczos:param0=3:out_range=limited:out_color_matrix=bt709:out_chroma_loc=left,setsar=1.000,setdar=1.778,colorspace=format=yuv420p:range=tv:primaries=bt709:trc=bt709:space=bt709:fast=0[ref];[main][ref]psnr=eof_action=endall:stats_file='D\\:/Convert/FFMetrics/logs/psnr_logfile-6.txt'" -f null -
Input #0, matroska,webm, from 'F:\Convert\files\[DC] Make Heroine ga Oosugiru - 07_Telegram_HEVC(128).mkv':
  Metadata:
    COMPATIBLE_BRANDS: isomiso2avc1mp41
    MAJOR_BRAND     : isom
    MINOR_VERSION   : 512
    ENCODER         : Lavf61.7.100
  Duration: 00:24:06.79, start: -0.021000, bitrate: 978 kb/s
  Stream #0:0: Video: hevc (Main 10), yuv420p10le(tv, bt709, progressive), 1920x1080 [SAR 1:1 DAR 16:9], 23.98 fps, 23.98 tbr, 1k tbn (default)
      Metadata:
        HANDLER_NAME    : VideoHandler
        VENDOR_ID       : [0][0][0][0]
        ENCODER         : Lavc61.19.100 libx265
        BPS             : 781403
        DURATION        : 00:24:06.569708333
        NUMBER_OF_FRAMES: 34683
        NUMBER_OF_BYTES : 141294247
        _STATISTICS_WRITING_APP: mkvpropedit v94.0 ('Initiate') 64-bit
        _STATISTICS_WRITING_DATE_UTC: 2026-01-14 08:35:26
        _STATISTICS_TAGS: BPS DURATION NUMBER_OF_FRAMES NUMBER_OF_BYTES
  Stream #0:1: Audio: aac (LC), 48000 Hz, stereo, fltp (default)
      Metadata:
        HANDLER_NAME    : SoundHandler
        VENDOR_ID       : [0][0][0][0]
        ENCODER         : Lavc61.19.100 aac
        BPS             : 193194
        DURATION        : 00:24:06.784000000
        NUMBER_OF_FRAMES: 67819
        NUMBER_OF_BYTES : 34938755
        _STATISTICS_WRITING_APP: mkvpropedit v94.0 ('Initiate') 64-bit
        _STATISTICS_WRITING_DATE_UTC: 2026-01-14 08:35:26
        _STATISTICS_TAGS: BPS DURATION NUMBER_OF_FRAMES NUMBER_OF_BYTES
Input #1, mov,mp4,m4a,3gp,3g2,mj2, from 'F:\Convert\files\[DC] Make Heroine ga Oosugiru - 07_Telegram.mp4':
  Metadata:
    major_brand     : isom
    minor_version   : 512
    compatible_brands: isomiso2avc1mp41
    encoder         : Lavf60.16.100
  Duration: 00:24:06.74, start: 0.000000, bitrate: 3764 kb/s
  Stream #1:0[0x1](und): Video: h264 (High) (avc1 / 0x31637661), yuv420p(tv, bt709, progressive), 1920x1080 [SAR 1:1 DAR 16:9], 3616 kb/s, 23.98 fps, 23.98 tbr, 24k tbn (default)
      Metadata:
        handler_name    : VideoHandler
        vendor_id       : [0][0][0][0]
        encoder         : Lavc60.31.102 h264_qsv
  Stream #1:1[0x2](und): Audio: aac (HE-AACv2) (mp4a / 0x6134706D), 48000 Hz, stereo, fltp, 144 kb/s (default)
      Metadata:
        handler_name    : SoundHandler
        vendor_id       : [0][0][0][0]
Stream mapping:
  Stream #0:0 (hevc) -> settb:default
  Stream #1:0 (h264) -> settb:default
  psnr:default -> Stream #0:0 (wrapped_avframe)
  Stream #0:1 -> #0:1 (aac (native) -> pcm_s16le (native))
Output #0, null, to 'pipe:':
  Metadata:
    COMPATIBLE_BRANDS: isomiso2avc1mp41
    MAJOR_BRAND     : isom
    MINOR_VERSION   : 512
    encoder         : Lavf61.7.100
  Stream #0:0: Video: wrapped_avframe, yuv420p10le(tv, bt709, progressive), 1920x1080 [SAR 1:1 DAR 16:9], q=2-31, 200 kb/s, 23.98 fps, 23.98 tbn
      Metadata:
        encoder         : Lavc61.19.100 wrapped_avframe
  Stream #0:1: Audio: pcm_s16le, 48000 Hz, stereo, s16, 1536 kb/s (default)
      Metadata:
        HANDLER_NAME    : SoundHandler
        VENDOR_ID       : [0][0][0][0]
        _STATISTICS_TAGS: BPS DURATION NUMBER_OF_FRAMES NUMBER_OF_BYTES
        BPS             : 193194
        DURATION        : 00:24:06.784000000
        NUMBER_OF_FRAMES: 67819
        NUMBER_OF_BYTES : 34938755
        _STATISTICS_WRITING_APP: mkvpropedit v94.0 ('Initiate') 64-bit
        _STATISTICS_WRITING_DATE_UTC: 2026-01-14 08:35:26
        encoder         : Lavc61.19.100 pcm_s16le
frame=  121 fps=0.0 q=-0.0 size=N/A time=00:00:05.04 bitrate=N/A speed=9.63x    frame=  302 fps=291 q=-0.0 size=N/A time=00:00:12.59 bitrate=N/A speed=12.1x    frame=  490 fps=315 q=-0.0 size=N/A time=00:00:20.43 bitrate=N/A speed=13.2x    frame=  674 fps=325 q=-0.0 size=N/A time=00:00:28.11 bitrate=N/A speed=13.6x    frame=  845 fps=327 q=-0.0 size=N/A time=00:00:35.24 bitrate=N/A speed=13.6x    frame=  980 fps=317 q=-0.0 size=N/A time=00:00:40.87 bitrate=N/A speed=13.2x    frame= 1130 fps=313 q=-0.0 size=N/A time=00:00:47.13 bitrate=N/A speed=  13x    frame= 1290 fps=313 q=-0.0 size=N/A time=00:00:53.80 bitrate=N/A speed=  13x    frame= 1450 fps=312 q=-0.0 size=N/A time=00:01:00.47 bitrate=N/A speed=  13x    frame= 1594 fps=309 q=-0.0 size=N/A time=00:01:06.48 bitrate=N/A speed=12.9x    frame= 1725 fps=304 q=-0.0 size=N/A time=00:01:11.94 bitrate=N/A speed=12.7x    frame= 1890 fps=305 q=-0.0 size=N/A time=00:01:18.82 bitrate=N/A speed=12.7x    frame= 2036 fps=304 q=-0.0 size=N/A time=00:01:24.91 bitrate=N/A speed=12.7x    frame= 2130 fps=295 q=-0.0 size=N/A time=00:01:28.83 bitrate=N/A speed=12.3x    frame= 2269 fps=293 q=-0.0 size=N/A time=00:01:34.63 bitrate=N/A speed=12.2x    frame= 2405 fps=292 q=-0.0 size=N/A time=00:01:40.30 bitrate=N/A speed=12.2x    frame= 2530 fps=289 q=-0.0 size=N/A time=00:01:45.52 bitrate=N/A speed=  12x    frame= 2680 fps=289 q=-0.0 size=N/A time=00:01:51.77 bitrate=N/A speed=  12x    frame= 2840 fps=290 q=-0.0 size=N/A time=00:01:58.45 bitrate=N/A speed=12.1x    frame= 3006 fps=291 q=-0.0 size=N/A time=00:02:05.41 bitrate=N/A speed=12.2x    frame= 3181 fps=294 q=-0.0 size=N/A time=00:02:12.67 bitrate=N/A speed=12.3x    frame= 3356 fps=296 q=-0.0 size=N/A time=00:02:19.97 bitrate=N/A speed=12.3x    frame= 3541 fps=298 q=-0.0 size=N/A time=00:02:27.68 bitrate=N/A speed=12.4x    frame= 3727 fps=301 q=-0.0 size=N/A time=00:02:35.44 bitrate=N/A speed=12.6x    frame= 3906 fps=303 q=-0.0 size=N/A time=00:02:42.91 bitrate=N/A speed=12.6x    frame= 4076 fps=304 q=-0.0 size=N/A time=00:02:50.00 bitrate=N/A speed=12.7x    frame= 4231 fps=304 q=-0.0 size=N/A time=00:02:56.46 bitrate=N/A speed=12.7x    frame= 4405 fps=305 q=-0.0 size=N/A time=00:03:03.72 bitrate=N/A speed=12.7x    frame= 4585 fps=307 q=-0.0 size=N/A time=00:03:11.23 bitrate=N/A speed=12.8x    frame= 4761 fps=308 q=-0.0 size=N/A time=00:03:18.57 bitrate=N/A speed=12.8x    frame= 4927 fps=308 q=-0.0 size=N/A time=00:03:25.49 bitrate=N/A speed=12.9x    frame= 5106 fps=309 q=-0.0 size=N/A time=00:03:32.96 bitrate=N/A speed=12.9x    frame= 5284 fps=311 q=-0.0 size=N/A time=00:03:40.38 bitrate=N/A speed=  13x    frame= 5458 fps=311 q=-0.0 size=N/A time=00:03:47.64 bitrate=N/A speed=  13x    frame= 5628 fps=312 q=-0.0 size=N/A time=00:03:54.73 bitrate=N/A speed=  13x    frame= 5805 fps=313 q=-0.0 size=N/A time=00:04:02.11 bitrate=N/A speed=  13x    frame= 5987 fps=314 q=-0.0 size=N/A time=00:04:09.70 bitrate=N/A speed=13.1x    frame= 6150 fps=314 q=-0.0 size=N/A time=00:04:16.50 bitrate=N/A speed=13.1x    frame= 6325 fps=315 q=-0.0 size=N/A time=00:04:23.80 bitrate=N/A speed=13.1x    frame= 6499 fps=315 q=-0.0 size=N/A time=00:04:31.06 bitrate=N/A speed=13.1x    frame= 6685 fps=316 q=-0.0 size=N/A time=00:04:38.82 bitrate=N/A speed=13.2x    frame= 6848 fps=316 q=-0.0 size=N/A time=00:04:45.61 bitrate=N/A speed=13.2x    frame= 7024 fps=317 q=-0.0 size=N/A time=00:04:52.95 bitrate=N/A speed=13.2x    frame= 7183 fps=317 q=-0.0 size=N/A time=00:04:59.59 bitrate=N/A speed=13.2x    frame= 7353 fps=317 q=-0.0 size=N/A time=00:05:06.68 bitrate=N/A speed=13.2x    frame= 7514 fps=317 q=-0.0 size=N/A time=00:05:13.39 bitrate=N/A speed=13.2x    frame= 7681 fps=317 q=-0.0 size=N/A time=00:05:20.36 bitrate=N/A speed=13.2x    frame= 7849 fps=317 q=-0.0 size=N/A time=00:05:27.36 bitrate=N/A speed=13.2x    frame= 8016 fps=317 q=-0.0 size=N/A time=00:05:34.33 bitrate=N/A speed=13.2x    frame= 8178 fps=317 q=-0.0 size=N/A time=00:05:41.09 bitrate=N/A speed=13.2x    frame= 8340 fps=317 q=-0.0 size=N/A time=00:05:47.84 bitrate=N/A speed=13.2x    frame= 8507 fps=317 q=-0.0 size=N/A time=00:05:54.81 bitrate=N/A speed=13.2x    frame= 8666 fps=317 q=-0.0 size=N/A time=00:06:01.44 bitrate=N/A speed=13.2x    frame= 8836 fps=317 q=-0.0 size=N/A time=00:06:08.53 bitrate=N/A speed=13.2x    frame= 9000 fps=317 q=-0.0 size=N/A time=00:06:15.37 bitrate=N/A speed=13.2x    frame= 9164 fps=317 q=-0.0 size=N/A time=00:06:22.21 bitrate=N/A speed=13.2x    frame= 9333 fps=317 q=-0.0 size=N/A time=00:06:29.26 bitrate=N/A speed=13.2x    frame= 9498 fps=317 q=-0.0 size=N/A time=00:06:36.14 bitrate=N/A speed=13.2x    frame= 9658 fps=317 q=-0.0 size=N/A time=00:06:42.81 bitrate=N/A speed=13.2x    frame= 9822 fps=317 q=-0.0 size=N/A time=00:06:49.65 bitrate=N/A speed=13.2x    frame= 9989 fps=318 q=-0.0 size=N/A time=00:06:56.62 bitrate=N/A speed=13.2x    frame=10154 fps=318 q=-0.0 size=N/A time=00:07:03.50 bitrate=N/A speed=13.2x    frame=10316 fps=317 q=-0.0 size=N/A time=00:07:10.26 bitrate=N/A speed=13.2x    frame=10471 fps=317 q=-0.0 size=N/A time=00:07:16.72 bitrate=N/A speed=13.2x    frame=10640 fps=317 q=-0.0 size=N/A time=00:07:23.77 bitrate=N/A speed=13.2x    frame=10807 fps=317 q=-0.0 size=N/A time=00:07:30.74 bitrate=N/A speed=13.2x    frame=10964 fps=317 q=-0.0 size=N/A time=00:07:37.29 bitrate=N/A speed=13.2x    frame=11125 fps=317 q=-0.0 size=N/A time=00:07:44.00 bitrate=N/A speed=13.2x    frame=11280 fps=317 q=-0.0 size=N/A time=00:07:50.47 bitrate=N/A speed=13.2x    frame=11458 fps=317 q=-0.0 size=N/A time=00:07:57.89 bitrate=N/A speed=13.2x    frame=11623 fps=317 q=-0.0 size=N/A time=00:08:04.77 bitrate=N/A speed=13.2x    frame=11785 fps=317 q=-0.0 size=N/A time=00:08:11.53 bitrate=N/A speed=13.2x    frame=11946 fps=317 q=-0.0 size=N/A time=00:08:18.24 bitrate=N/A speed=13.2x    frame=12115 fps=318 q=-0.0 size=N/A time=00:08:25.29 bitrate=N/A speed=13.2x    frame=12277 fps=317 q=-0.0 size=N/A time=00:08:32.05 bitrate=N/A speed=13.2x    frame=12443 fps=318 q=-0.0 size=N/A time=00:08:38.97 bitrate=N/A speed=13.2x    frame=12614 fps=318 q=-0.0 size=N/A time=00:08:46.10 bitrate=N/A speed=13.3x    frame=12794 fps=318 q=-0.0 size=N/A time=00:08:53.61 bitrate=N/A speed=13.3x    frame=12965 fps=318 q=-0.0 size=N/A time=00:09:00.74 bitrate=N/A speed=13.3x    frame=13139 fps=318 q=-0.0 size=N/A time=00:09:08.00 bitrate=N/A speed=13.3x    frame=13304 fps=319 q=-0.0 size=N/A time=00:09:14.88 bitrate=N/A speed=13.3x    frame=13479 fps=319 q=-0.0 size=N/A time=00:09:22.18 bitrate=N/A speed=13.3x    frame=13640 fps=319 q=-0.0 size=N/A time=00:09:28.90 bitrate=N/A speed=13.3x    frame=13825 fps=319 q=-0.0 size=N/A time=00:09:36.61 bitrate=N/A speed=13.3x    frame=14010 fps=320 q=-0.0 size=N/A time=00:09:44.33 bitrate=N/A speed=13.3x    frame=14176 fps=320 q=-0.0 size=N/A time=00:09:51.25 bitrate=N/A speed=13.3x    frame=14349 fps=320 q=-0.0 size=N/A time=00:09:58.47 bitrate=N/A speed=13.3x    frame=14522 fps=320 q=-0.0 size=N/A time=00:10:05.68 bitrate=N/A speed=13.3x    frame=14697 fps=320 q=-0.0 size=N/A time=00:10:12.98 bitrate=N/A speed=13.4x    frame=14861 fps=320 q=-0.0 size=N/A time=00:10:19.82 bitrate=N/A speed=13.4x    frame=15031 fps=320 q=-0.0 size=N/A time=00:10:26.91 bitrate=N/A speed=13.4x    frame=15167 fps=320 q=-0.0 size=N/A time=00:10:32.59 bitrate=N/A speed=13.3x    frame=15340 fps=320 q=-0.0 size=N/A time=00:10:39.80 bitrate=N/A speed=13.3x    frame=15493 fps=320 q=-0.0 size=N/A time=00:10:46.18 bitrate=N/A speed=13.3x    frame=15657 fps=320 q=-0.0 size=N/A time=00:10:53.02 bitrate=N/A speed=13.3x    frame=15834 fps=320 q=-0.0 size=N/A time=00:11:00.40 bitrate=N/A speed=13.3x    frame=16000 fps=320 q=-0.0 size=N/A time=00:11:07.33 bitrate=N/A speed=13.3x    frame=16164 fps=320 q=-0.0 size=N/A time=00:11:14.17 bitrate=N/A speed=13.3x    frame=16325 fps=320 q=-0.0 size=N/A time=00:11:20.88 bitrate=N/A speed=13.3x    frame=16500 fps=320 q=-0.0 size=N/A time=00:11:28.18 bitrate=N/A speed=13.3x    frame=16660 fps=320 q=-0.0 size=N/A time=00:11:34.86 bitrate=N/A speed=13.3x    frame=16837 fps=320 q=-0.0 size=N/A time=00:11:42.24 bitrate=N/A speed=13.4x    frame=17011 fps=320 q=-0.0 size=N/A time=00:11:49.50 bitrate=N/A speed=13.4x    frame=17181 fps=320 q=-0.0 size=N/A time=00:11:56.59 bitrate=N/A speed=13.4x    frame=17341 fps=320 q=-0.0 size=N/A time=00:12:03.26 bitrate=N/A speed=13.4x    frame=17506 fps=320 q=-0.0 size=N/A time=00:12:10.14 bitrate=N/A speed=13.4x    frame=17663 fps=320 q=-0.0 size=N/A time=00:12:16.69 bitrate=N/A speed=13.4x    frame=17825 fps=320 q=-0.0 size=N/A time=00:12:23.45 bitrate=N/A speed=13.3x    frame=17992 fps=320 q=-0.0 size=N/A time=00:12:30.41 bitrate=N/A speed=13.4x    frame=18158 fps=320 q=-0.0 size=N/A time=00:12:37.33 bitrate=N/A speed=13.4x    frame=18313 fps=320 q=-0.0 size=N/A time=00:12:43.80 bitrate=N/A speed=13.3x    frame=18481 fps=320 q=-0.0 size=N/A time=00:12:50.81 bitrate=N/A speed=13.3x    frame=18646 fps=320 q=-0.0 size=N/A time=00:12:57.69 bitrate=N/A speed=13.3x    frame=18817 fps=320 q=-0.0 size=N/A time=00:13:04.82 bitrate=N/A speed=13.3x    frame=18985 fps=320 q=-0.0 size=N/A time=00:13:11.83 bitrate=N/A speed=13.4x    frame=19153 fps=320 q=-0.0 size=N/A time=00:13:18.83 bitrate=N/A speed=13.4x    frame=19331 fps=320 q=-0.0 size=N/A time=00:13:26.26 bitrate=N/A speed=13.4x    frame=19495 fps=320 q=-0.0 size=N/A time=00:13:33.10 bitrate=N/A speed=13.4x    frame=19665 fps=320 q=-0.0 size=N/A time=00:13:40.19 bitrate=N/A speed=13.4x    frame=19835 fps=321 q=-0.0 size=N/A time=00:13:47.28 bitrate=N/A speed=13.4x    frame=20004 fps=321 q=-0.0 size=N/A time=00:13:54.33 bitrate=N/A speed=13.4x    frame=20179 fps=321 q=-0.0 size=N/A time=00:14:01.63 bitrate=N/A speed=13.4x    frame=20346 fps=321 q=-0.0 size=N/A time=00:14:08.59 bitrate=N/A speed=13.4x    frame=20509 fps=321 q=-0.0 size=N/A time=00:14:15.39 bitrate=N/A speed=13.4x    frame=20653 fps=320 q=-0.0 size=N/A time=00:14:21.40 bitrate=N/A speed=13.4x    frame=20816 fps=320 q=-0.0 size=N/A time=00:14:28.20 bitrate=N/A speed=13.4x    frame=20989 fps=321 q=-0.0 size=N/A time=00:14:35.41 bitrate=N/A speed=13.4x    frame=21180 fps=321 q=-0.0 size=N/A time=00:14:43.38 bitrate=N/A speed=13.4x    frame=21368 fps=321 q=-0.0 size=N/A time=00:14:51.22 bitrate=N/A speed=13.4x    frame=21543 fps=321 q=-0.0 size=N/A time=00:14:58.52 bitrate=N/A speed=13.4x    frame=21713 fps=321 q=-0.0 size=N/A time=00:15:05.61 bitrate=N/A speed=13.4x    frame=21886 fps=322 q=-0.0 size=N/A time=00:15:12.82 bitrate=N/A speed=13.4x    frame=22060 fps=322 q=-0.0 size=N/A time=00:15:20.08 bitrate=N/A speed=13.4x    frame=22227 fps=322 q=-0.0 size=N/A time=00:15:27.05 bitrate=N/A speed=13.4x    frame=22389 fps=322 q=-0.0 size=N/A time=00:15:33.80 bitrate=N/A speed=13.4x    frame=22559 fps=322 q=-0.0 size=N/A time=00:15:40.89 bitrate=N/A speed=13.4x    frame=22718 fps=322 q=-0.0 size=N/A time=00:15:47.52 bitrate=N/A speed=13.4x    frame=22884 fps=322 q=-0.0 size=N/A time=00:15:54.45 bitrate=N/A speed=13.4x    frame=23047 fps=322 q=-0.0 size=N/A time=00:16:01.25 bitrate=N/A speed=13.4x    frame=23215 fps=322 q=-0.0 size=N/A time=00:16:08.25 bitrate=N/A speed=13.4x    frame=23385 fps=322 q=-0.0 size=N/A time=00:16:15.34 bitrate=N/A speed=13.4x    frame=23553 fps=322 q=-0.0 size=N/A time=00:16:22.35 bitrate=N/A speed=13.4x    frame=23701 fps=321 q=-0.0 size=N/A time=00:16:28.52 bitrate=N/A speed=13.4x    frame=23868 fps=321 q=-0.0 size=N/A time=00:16:35.49 bitrate=N/A speed=13.4x    frame=24040 fps=321 q=-0.0 size=N/A time=00:16:42.66 bitrate=N/A speed=13.4x    frame=24199 fps=321 q=-0.0 size=N/A time=00:16:49.29 bitrate=N/A speed=13.4x    frame=24373 fps=322 q=-0.0 size=N/A time=00:16:56.55 bitrate=N/A speed=13.4x    frame=24533 fps=321 q=-0.0 size=N/A time=00:17:03.23 bitrate=N/A speed=13.4x    frame=24701 fps=321 q=-0.0 size=N/A time=00:17:10.23 bitrate=N/A speed=13.4x    frame=24861 fps=321 q=-0.0 size=N/A time=00:17:16.91 bitrate=N/A speed=13.4x    frame=25026 fps=321 q=-0.0 size=N/A time=00:17:23.79 bitrate=N/A speed=13.4x    frame=25200 fps=322 q=-0.0 size=N/A time=00:17:31.05 bitrate=N/A speed=13.4x    frame=25364 fps=321 q=-0.0 size=N/A time=00:17:37.89 bitrate=N/A speed=13.4x    frame=25534 fps=321 q=-0.0 size=N/A time=00:17:44.98 bitrate=N/A speed=13.4x    frame=25707 fps=322 q=-0.0 size=N/A time=00:17:52.19 bitrate=N/A speed=13.4x    frame=25868 fps=322 q=-0.0 size=N/A time=00:17:58.91 bitrate=N/A speed=13.4x    frame=26030 fps=321 q=-0.0 size=N/A time=00:18:05.66 bitrate=N/A speed=13.4x    frame=26193 fps=321 q=-0.0 size=N/A time=00:18:12.46 bitrate=N/A speed=13.4x    frame=26361 fps=321 q=-0.0 size=N/A time=00:18:19.47 bitrate=N/A speed=13.4x    frame=26526 fps=321 q=-0.0 size=N/A time=00:18:26.35 bitrate=N/A speed=13.4x    frame=26689 fps=321 q=-0.0 size=N/A time=00:18:33.15 bitrate=N/A speed=13.4x    frame=26860 fps=321 q=-0.0 size=N/A time=00:18:40.28 bitrate=N/A speed=13.4x    frame=27013 fps=321 q=-0.0 size=N/A time=00:18:46.66 bitrate=N/A speed=13.4x    frame=27167 fps=321 q=-0.0 size=N/A time=00:18:53.09 bitrate=N/A speed=13.4x    frame=27330 fps=321 q=-0.0 size=N/A time=00:18:59.88 bitrate=N/A speed=13.4x    frame=27485 fps=321 q=-0.0 size=N/A time=00:19:06.35 bitrate=N/A speed=13.4x    frame=27639 fps=321 q=-0.0 size=N/A time=00:19:12.77 bitrate=N/A speed=13.4x    frame=27809 fps=321 q=-0.0 size=N/A time=00:19:19.86 bitrate=N/A speed=13.4x    frame=27971 fps=321 q=-0.0 size=N/A time=00:19:26.62 bitrate=N/A speed=13.4x    frame=28139 fps=321 q=-0.0 size=N/A time=00:19:33.63 bitrate=N/A speed=13.4x    frame=28303 fps=321 q=-0.0 size=N/A time=00:19:40.47 bitrate=N/A speed=13.4x    frame=28467 fps=321 q=-0.0 size=N/A time=00:19:47.31 bitrate=N/A speed=13.4x    frame=28642 fps=321 q=-0.0 size=N/A time=00:19:54.61 bitrate=N/A speed=13.4x    frame=28805 fps=321 q=-0.0 size=N/A time=00:20:01.40 bitrate=N/A speed=13.4x    frame=28970 fps=321 q=-0.0 size=N/A time=00:20:08.29 bitrate=N/A speed=13.4x    frame=29140 fps=321 q=-0.0 size=N/A time=00:20:15.38 bitrate=N/A speed=13.4x    frame=29308 fps=321 q=-0.0 size=N/A time=00:20:22.38 bitrate=N/A speed=13.4x    frame=29475 fps=321 q=-0.0 size=N/A time=00:20:29.35 bitrate=N/A speed=13.4x    frame=29645 fps=321 q=-0.0 size=N/A time=00:20:36.44 bitrate=N/A speed=13.4x    frame=29811 fps=321 q=-0.0 size=N/A time=00:20:43.36 bitrate=N/A speed=13.4x    frame=29980 fps=321 q=-0.0 size=N/A time=00:20:50.41 bitrate=N/A speed=13.4x    frame=30142 fps=321 q=-0.0 size=N/A time=00:20:57.17 bitrate=N/A speed=13.4x    frame=30308 fps=321 q=-0.0 size=N/A time=00:21:04.09 bitrate=N/A speed=13.4x    frame=30478 fps=321 q=-0.0 size=N/A time=00:21:11.18 bitrate=N/A speed=13.4x    frame=30653 fps=321 q=-0.0 size=N/A time=00:21:18.48 bitrate=N/A speed=13.4x    frame=30832 fps=321 q=-0.0 size=N/A time=00:21:25.95 bitrate=N/A speed=13.4x    frame=30999 fps=321 q=-0.0 size=N/A time=00:21:32.91 bitrate=N/A speed=13.4x    frame=31188 fps=322 q=-0.0 size=N/A time=00:21:40.79 bitrate=N/A speed=13.4x    frame=31356 fps=322 q=-0.0 size=N/A time=00:21:47.80 bitrate=N/A speed=13.4x    frame=31528 fps=322 q=-0.0 size=N/A time=00:21:54.98 bitrate=N/A speed=13.4x    frame=31705 fps=322 q=-0.0 size=N/A time=00:22:02.36 bitrate=N/A speed=13.4x    frame=31868 fps=322 q=-0.0 size=N/A time=00:22:09.16 bitrate=N/A speed=13.4x    frame=32038 fps=322 q=-0.0 size=N/A time=00:22:16.25 bitrate=N/A speed=13.4x    frame=32205 fps=322 q=-0.0 size=N/A time=00:22:23.21 bitrate=N/A speed=13.4x    frame=32384 fps=322 q=-0.0 size=N/A time=00:22:30.68 bitrate=N/A speed=13.4x    frame=32569 fps=322 q=-0.0 size=N/A time=00:22:38.39 bitrate=N/A speed=13.4x    frame=32715 fps=322 q=-0.0 size=N/A time=00:22:44.48 bitrate=N/A speed=13.4x    frame=32857 fps=322 q=-0.0 size=N/A time=00:22:50.41 bitrate=N/A speed=13.4x    frame=33034 fps=322 q=-0.0 size=N/A time=00:22:57.79 bitrate=N/A speed=13.4x    frame=33196 fps=322 q=-0.0 size=N/A time=00:23:04.54 bitrate=N/A speed=13.4x    frame=33366 fps=322 q=-0.0 size=N/A time=00:23:11.64 bitrate=N/A speed=13.4x    frame=33529 fps=322 q=-0.0 size=N/A time=00:23:18.43 bitrate=N/A speed=13.4x    frame=33669 fps=322 q=-0.0 size=N/A time=00:23:24.27 bitrate=N/A speed=13.4x    frame=33802 fps=321 q=-0.0 size=N/A time=00:23:29.82 bitrate=N/A speed=13.4x    frame=33935 fps=321 q=-0.0 size=N/A time=00:23:35.37 bitrate=N/A speed=13.4x    frame=34089 fps=321 q=-0.0 size=N/A time=00:23:41.79 bitrate=N/A speed=13.4x    frame=34249 fps=321 q=-0.0 size=N/A time=00:23:48.46 bitrate=N/A speed=13.4x    frame=34374 fps=320 q=-0.0 size=N/A time=00:23:53.68 bitrate=N/A speed=13.4x    frame=34509 fps=320 q=-0.0 size=N/A time=00:23:59.31 bitrate=N/A speed=13.4x    frame=34677 fps=320 q=-0.0 size=N/A time=00:24:06.31 bitrate=N/A speed=13.4x    [Parsed_psnr_16 @ 000001708907bf00] PSNR y:48.963733 u:50.334976 v:50.386126 average:49.381313 min:38.009039 max:inf
[out#0/null @ 00000170fbb48a00] video:14903KiB audio:271276KiB subtitle:0KiB other streams:0KiB global headers:0KiB muxing overhead: unknown
frame=34683 fps=320 q=-0.0 Lsize=N/A time=00:24:06.57 bitrate=N/A speed=13.4x    
